<svg width="1403" height="852" viewBox="0 0 1403 852" fill="none" xmlns="http://www.w3.org/2000/svg">
<mask id="path-1-inside-1_153_58" fill="white">
<path d="M679 852C695.569 852 709 838.569 709 822V538C709 521.431 722.431 508 739 508H1373C1389.57 508 1403 494.569 1403 478V30C1403 13.4314 1389.57 0 1373 0H30C13.4315 0 0 13.4315 0 30V822C0 838.569 13.4315 852 30 852H679Z"/>
</mask>
<path d="M679 852C695.569 852 709 838.569 709 822V538C709 521.431 722.431 508 739 508H1373C1389.57 508 1403 494.569 1403 478V30C1403 13.4314 1389.57 0 1373 0H30C13.4315 0 0 13.4315 0 30V822C0 838.569 13.4315 852 30 852H679Z" fill="white"/>
<path d="M709 822H708V538H709H710V822H709ZM739 508V507H1373V508V509H739V508ZM1403 478H1402V30H1403H1404V478H1403ZM1373 0V1H30V0V-1H1373V0ZM0 30H1V822H0H-1V30H0ZM30 852V851H679V852V853H30V852ZM0 822H1C1 838.016 13.9837 851 30 851V852V853C12.8792 853 -1 839.121 -1 822H0ZM30 0V1C13.9837 1 1 13.9838 1 30H0H-1C-1 12.8792 12.8792 -1 30 -1V0ZM1403 30H1402C1402 13.9837 1389.02 1 1373 1V0V-1C1390.12 -1 1404 12.8792 1404 30H1403ZM1373 508V507C1389.02 507 1402 494.016 1402 478H1403H1404C1404 495.121 1390.12 509 1373 509V508ZM709 538H708C708 520.879 721.879 507 739 507V508V509C722.984 509 710 521.984 710 538H709ZM709 822H710C710 839.121 696.121 853 679 853V852V851C695.016 851 708 838.016 708 822H709Z" fill="black" mask="url(#path-1-inside-1_153_58)"/>
</svg>
