<svg width="294" height="111" viewBox="0 0 294 111" fill="none" xmlns="http://www.w3.org/2000/svg">
<path fill-rule="evenodd" clip-rule="evenodd" d="M84.28 38.93C64.64 38.93 48.73 54.84 48.73 74.45C48.73 79.81 49.91 84.86 52.02 89.4H20.68V41.35H0V108.2H44.73L54.14 93.32C60.42 103.35 71.55 110.01 84.28 110.01C103.91 110.01 119.82 94.08 119.82 74.44C119.83 54.84 103.91 38.93 84.28 38.93ZM84.28 91.25C75 91.25 67.49 83.75 67.49 74.45C67.49 65.2 75 57.68 84.28 57.68C93.55 57.68 101.06 65.19 101.06 74.45C101.06 83.75 93.55 91.25 84.28 91.25ZM171.17 82.38L146.2 41.35H143.7H128H125.51V108.21H143.71V67.17L168.7 108.2H189.39V41.35H171.18V82.38H171.17ZM265.52 68.25H264.93H247.17H230.51V80.12H247.37C245.02 87.18 238.36 92.26 230.51 92.26C220.68 92.26 212.7 84.3 212.7 74.45C212.7 64.64 220.68 56.67 230.51 56.67C235.21 56.67 239.48 58.51 242.66 61.49H263.61C258.42 48.26 245.55 38.93 230.51 38.93C210.88 38.93 194.98 54.84 194.98 74.45C194.98 94.09 210.88 110.01 230.51 110.01C250.14 110.01 266.04 94.08 266.04 74.45C266.04 72.36 265.86 70.27 265.52 68.25ZM293.77 20.7H273V0H293.77V20.7ZM293.77 109.88H273V41.03H293.77V109.88Z" fill="#E60012"/>
</svg>
