<?xml version="1.0" encoding="utf-8"?>
<!-- Generator: Adobe Illustrator 26.5.1, SVG Export Plug-In . SVG Version: 6.00 Build 0)  -->
<svg version="1.1" id="Ebene_1" xmlns="http://www.w3.org/2000/svg" xmlns:xlink="http://www.w3.org/1999/xlink" x="0px" y="0px"
	 viewBox="0 0 269.3 127.6" style="enable-background:new 0 0 269.3 127.6;" xml:space="preserve">
<style type="text/css">
	.st0{fill:#9EC026;}
	.st1{fill:#222222;}
</style>
<g>
	<g>
		<path class="st0" d="M175.6,3c0,0-1.1,0-1.1,1.1v19.4c0,0,0,1.1,1.1,1.1h3.3c0,0,1.1,0,1.1-1.1V4.1c0,0,0-1.1-1.1-1.1H175.6z"/>
		<polygon class="st1" points="1.4,10.9 1.4,15.7 15.4,15.7 15.4,56.9 21.1,56.9 21.1,15.7 35.2,15.7 35.2,10.9 		"/>
		<polygon class="st1" points="68.7,56.9 42.9,56.9 42.9,10.9 67.6,10.9 67.6,15.7 48.6,15.7 48.6,31 66.2,31 66.2,35.9 48.6,35.9 
			48.6,52 68.7,52 		"/>
		<path class="st1" d="M75.8,55v-6.4c0.8,0.6,1.7,1.2,2.8,1.7c1.1,0.5,2.2,1,3.4,1.3c1.2,0.3,2.4,0.6,3.6,0.8
			c1.2,0.2,2.3,0.3,3.3,0.3c3.5,0,6.1-0.6,7.9-1.9c1.7-1.2,2.6-3,2.6-5.3c0-1.2-0.3-2.3-0.9-3.2c-0.6-0.9-1.4-1.8-2.4-2.5
			c-1-0.8-2.2-1.5-3.6-2.2c-1.4-0.7-2.9-1.4-4.5-2.2c-1.7-0.8-3.3-1.6-4.7-2.5c-1.5-0.8-2.7-1.8-3.8-2.8c-1.1-1-1.9-2.1-2.6-3.4
			c-0.6-1.3-0.9-2.8-0.9-4.5c0-2.1,0.5-3.9,1.5-5.5c1-1.6,2.3-2.8,3.8-3.8c1.6-1,3.4-1.8,5.4-2.2c2-0.5,4.1-0.7,6.2-0.7
			c4.8,0,8.3,0.5,10.5,1.6v6.1c-2.9-1.9-6.6-2.8-11.1-2.8c-1.3,0-2.5,0.1-3.7,0.4c-1.2,0.2-2.4,0.6-3.3,1.2c-1,0.6-1.8,1.3-2.4,2.2
			c-0.6,0.9-0.9,1.9-0.9,3.2c0,1.2,0.2,2.2,0.7,3c0.5,0.9,1.1,1.6,2.1,2.3c0.9,0.7,2,1.4,3.3,2c1.3,0.7,2.8,1.4,4.5,2.2
			c1.8,0.8,3.4,1.7,5,2.6c1.6,0.9,2.9,1.9,4.1,3c1.2,1.1,2.1,2.3,2.8,3.6c0.7,1.3,1,2.8,1,4.6c0,2.3-0.5,4.2-1.4,5.8
			c-0.9,1.6-2.2,2.9-3.8,3.8c-1.6,1-3.4,1.7-5.5,2.1c-2.1,0.4-4.3,0.7-6.6,0.7c-0.8,0-1.7-0.1-2.9-0.2c-1.1-0.1-2.3-0.3-3.5-0.5
			c-1.2-0.2-2.3-0.5-3.3-0.8C77.2,55.8,76.4,55.4,75.8,55"/>
		<path class="st1" d="M151.2,10.9l-18,46h-6.3l-17.6-46h6.4L129,47.3c0.4,1.2,0.8,2.5,1,4.1h0.1c0.2-1.3,0.6-2.7,1.1-4.1L145,10.9
			H151.2z"/>
		<polygon class="st1" points="235.4,56.9 210.2,56.9 210.2,10.9 215.9,10.9 215.9,52 235.4,52 		"/>
		<polygon class="st1" points="267.9,15.7 253.8,15.7 253.8,56.9 248.1,56.9 248.1,15.7 234.1,15.7 234.1,10.9 267.9,10.9 		"/>
		<path class="st0" d="M200.3,33.7c0-10.7-6.8-19.8-16.3-22.8v6c6.3,2.8,10.7,9.3,10.7,16.9c0,10.1-7.9,18.3-17.5,18.3
			s-17.5-8.2-17.5-18.3c0-7.6,4.4-14.1,10.7-16.9v-6c-9.4,3-16.3,12.1-16.3,22.8c0,13.2,10.3,23.9,23.1,23.9
			C190,57.6,200.3,46.9,200.3,33.7"/>
	</g>
	<g>
		<g>
			<g>
				<path class="st0" d="M15.4,81.3l-2,11.3h6.8l-0.9,5h-6.8l-2.8,15.9H3.5l2.8-15.9l0.2-0.7l2.7-15.5l0.3-1.5l0.4-2l0.4-2h14.2
					l-1,5.5H15.4z"/>
				<path class="st0" d="M30,89.7c1.7-3.1,4.2-4,6.3-3.5l-1,5.7c-1.9-0.3-4.2,0.8-6,3l-3.2,18.6h-6.1l4.8-27h5.1L30,89.7z"/>
				<path class="st0" d="M52.8,93l-0.8,4.8l-0.8,5h-9.7l-0.7,3.8c-0.2,0.8,0.5,1.4,1.5,1.4h7.2l-1,5.5h-7.2c-4,0-7.5-2.8-6.7-6.9
					L36.9,93c0.7-4.1,3.6-6.9,9.2-6.9C50,86.1,53.5,88.9,52.8,93z M45.8,97.8l0.8-4.8c0.2-0.8-0.5-1.4-1.5-1.4
					c-1.1,0-1.9,0.5-2.1,1.4l-0.8,4.8H45.8z"/>
				<path class="st0" d="M72.1,93l-0.8,4.8l-0.8,5h-9.7l-0.7,3.8c-0.2,0.8,0.5,1.4,1.5,1.4h7.2l-1,5.5h-7.2c-4,0-7.5-2.8-6.7-6.9
					L56.2,93c0.7-4.1,3.6-6.9,9.2-6.9C69.3,86.1,72.8,88.9,72.1,93z M65.1,97.8l0.8-4.8c0.2-0.8-0.5-1.4-1.5-1.4s-1.9,0.5-2.1,1.4
					l-0.8,4.8H65.1z"/>
				<path class="st0" d="M87.4,106.6c-0.2,0.8,0.5,1.4,1.5,1.4h1.3l-1,5.5h-3.1c-3.3,0-5.7-2.7-5.1-6l2.7-15.4h-2.3l1-5.5h2.3
					l1.4-7.9h6.1l-1.4,7.9H94l-1,5.5h-3.1L87.4,106.6z"/>
				<path class="st0" d="M111.6,93l-2.4,14c-0.7,4.1-3.6,6.9-9.2,6.9c-4,0-7.5-2.8-6.7-6.9l2.4-14c0.7-4.1,3.6-6.9,9.2-6.9
					C108.8,86.1,112.3,88.9,111.6,93z M101.8,93l-2.4,14c-0.2,0.8,0.5,1.4,1.5,1.4c1,0,1.9-0.5,2.1-1.4l2.4-14
					c0.2-0.8-0.5-1.4-1.5-1.4S102,92.2,101.8,93z"/>
				<path class="st0" d="M139.9,86.5l-5,28.7c-1.1,6.4-5.4,9-11.7,9h-4.8l1-5.5h4.8c2.1,0,4.1-1.1,4.6-3.5l0.6-3.4
					c-1.2,1.4-2.8,2-4.4,2c-2.9,0-5.1-2.8-4.5-6.9l2.4-13.6c0.7-4.1,3.2-6.9,7.6-6.9c1.3,0,2.8,0.5,3.8,1.2l0.5-1.1H139.9z
					 M132.8,92c-0.5-0.2-1.2-0.2-1.7-0.2c-1.1,0-1.9,0.5-2,1.4l-2.4,13.6c-0.1,0.8,0.5,1.4,1.6,1.4c0.7,0,1.4-0.4,2-1L132.8,92z"/>
				<path class="st0" d="M158.9,93l-2.4,14c-0.7,4.1-3.6,6.9-9.2,6.9c-4,0-7.5-2.8-6.7-6.9l2.4-14c0.7-4.1,3.6-6.9,9.2-6.9
					C156.2,86.1,159.7,88.9,158.9,93z M149.2,93l-2.4,14c-0.2,0.8,0.5,1.4,1.5,1.4c1,0,1.9-0.5,2.1-1.4l2.4-14
					c0.2-0.8-0.5-1.4-1.5-1.4S149.3,92.2,149.2,93z"/>
			</g>
			<g>
				<path class="st0" d="M186.2,85.6l-5.2,29.7c-1.1,6.6-5.6,9.3-12.1,9.3h-4.9l1-5.7h4.9c2.2,0,4.3-1.1,4.7-3.6l0.6-3.5
					c-1.3,1.4-2.9,2-4.6,2c-3,0-5.3-2.9-4.6-7.1l2.5-14.1c0.7-4.3,3.3-7.1,7.8-7.1c1.4,0,2.9,0.5,3.9,1.3l0.5-1.1H186.2z
					 M178.8,91.3c-0.5-0.2-1.2-0.2-1.8-0.2c-1.1,0-1.9,0.5-2.1,1.4l-2.5,14.1c-0.1,0.9,0.5,1.4,1.6,1.4c0.7,0,1.4-0.4,2-1
					L178.8,91.3z"/>
				<path class="st0" d="M196.4,89c1.8-3.2,4.4-4.2,6.5-3.7l-1,5.9c-2-0.3-4.3,0.8-6.2,3.1l-3.3,19.3h-6.4l4.9-27.9h5.3L196.4,89z"
					/>
				<path class="st0" d="M220,92.4l-0.9,5l-0.9,5.2h-10.1l-0.7,3.9c-0.2,0.9,0.5,1.4,1.6,1.4h7.4l-1,5.7H208c-4.1,0-7.7-2.9-7-7.1
					l2.5-14.1c0.8-4.3,3.7-7.1,9.5-7.1C217.1,85.2,220.7,88.1,220,92.4z M212.7,97.4l0.9-5c0.2-0.9-0.5-1.4-1.6-1.4
					c-1.1,0-2,0.5-2.1,1.4l-0.9,5H212.7z"/>
				<path class="st0" d="M239.9,92.4l-0.9,5l-0.9,5.2h-10.1l-0.7,3.9c-0.2,0.9,0.5,1.4,1.6,1.4h7.4l-1,5.7H228c-4.1,0-7.7-2.9-7-7.1
					l2.5-14.1c0.8-4.3,3.7-7.1,9.5-7.1C237.1,85.2,240.7,88.1,239.9,92.4z M232.7,97.4l0.9-5c0.2-0.9-0.5-1.4-1.6-1.4
					s-2,0.5-2.1,1.4l-0.9,5H232.7z"/>
				<path class="st0" d="M260.2,92.5l-3.7,21.1h-6.4l3.7-21.1c0.2-0.9-0.4-1.4-1.5-1.4c-0.7,0-1.4,0.4-2.1,1l-3.8,21.6H240l4.9-27.9
					h5.3l0.3,2.1c1.3-1.6,3-2.4,4.5-2.4C258.4,85.4,260.9,88.2,260.2,92.5z"/>
				<path class="st0" d="M266.5,113.6h-6.4l1.1-6.4h6.4L266.5,113.6z"/>
			</g>
		</g>
	</g>
</g>
</svg>
